<svg xmlns="http://www.w3.org/2000/svg" width="37" height="27.998" viewBox="0 0 37 27.998"><defs><style>.a{opacity:0.27;}.b{fill-rule:evenodd;}</style></defs><g class="a" transform="translate(-5 -10.001)"><g transform="translate(-347 -9)"><path class="b" d="M352.377,27.834a5.6,5.6,0,0,0,1.3,2.13,6.352,6.352,0,0,0,2.514,1.568,12.017,12.017,0,0,0,4.015.565h2.233A12.162,12.162,0,0,1,359.5,39.11a21.928,21.928,0,0,1-7.027,5.075L354.289,47a27.3,27.3,0,0,0,10.117-7.38q4.2-4.869,4.2-9.655,0-5.142-2.438-8.058A8.634,8.634,0,0,0,359.158,19a7.25,7.25,0,0,0-5.023,1.925A5.9,5.9,0,0,0,352,25.43a7.812,7.812,0,0,0,.377,2.4m20.4,0a5.612,5.612,0,0,0,1.3,2.13,6.394,6.394,0,0,0,2.512,1.568,12.057,12.057,0,0,0,4.018.565h2.23A12.14,12.14,0,0,1,379.9,39.11a21.928,21.928,0,0,1-7.027,5.075L374.688,47a27.322,27.322,0,0,0,10.117-7.38q4.2-4.869,4.2-9.655,0-5.142-2.439-8.058a8.627,8.627,0,0,0-7-2.905,7.246,7.246,0,0,0-5.024,1.925,5.9,5.9,0,0,0-2.135,4.5,7.723,7.723,0,0,0,.377,2.4"/></g></g></svg>